<?xml version="1.0" standalone="no"?><!DOCTYPE svg PUBLIC "-//W3C//DTD SVG 1.1//EN" "http://www.w3.org/Graphics/SVG/1.1/DTD/svg11.dtd"><svg class="icon" height="512" viewBox="0 0 1024 1024" version="1.1" xmlns="http://www.w3.org/2000/svg"><path d="M371.2 473.6a35.2 35.2 0 1 0 70.4 0 35.2 35.2 0 1 0-70.4 0ZM118.4 473.6a35.2 35.2 0 1 0 70.4 0 35.2 35.2 0 1 0-70.4 0ZM243.2 473.6a35.2 35.2 0 1 0 70.4 0 35.2 35.2 0 1 0-70.4 0ZM243.2 742.4a35.2 35.2 0 1 0 70.4 0 35.2 35.2 0 1 0-70.4 0ZM118.4 742.4a35.2 35.2 0 1 0 70.4 0 35.2 35.2 0 1 0-70.4 0ZM371.2 208a35.2 35.2 0 1 0 70.4 0 35.2 35.2 0 1 0-70.4 0ZM118.4 208a35.2 35.2 0 1 0 70.4 0 35.2 35.2 0 1 0-70.4 0ZM243.2 208a35.2 35.2 0 1 0 70.4 0 35.2 35.2 0 1 0-70.4 0ZM1011.2 880L828.8 576V137.6c0-44.8-38.4-83.2-83.2-83.2H83.2C38.4 54.4 0 89.6 0 137.6v675.2C0 857.6 38.4 896 83.2 896h272c-6.4 19.2-6.4 35.2 0 48 9.6 16 28.8 25.6 57.6 25.6H960c28.8 0 48-9.6 57.6-25.6 9.6-16 6.4-38.4-6.4-64zM38.4 627.2h476.8l-137.6 230.4H83.2c-25.6 0-44.8-19.2-44.8-44.8v-185.6z m0-307.2V137.6c0-25.6 19.2-44.8 44.8-44.8h659.2c25.6 0 44.8 19.2 44.8 44.8V320H38.4z m595.2 108.8l-96 160H38.4v-230.4h752V512l-48-80c-12.8-22.4-32-35.2-54.4-35.2-22.4-3.2-41.6 9.6-54.4 32z m-236.8 470.4L668.8 448c6.4-12.8 12.8-19.2 19.2-19.2 6.4 0 12.8 6.4 19.2 19.2l272 451.2c6.4 12.8 9.6 19.2 6.4 25.6-3.2 3.2-9.6 6.4-25.6 6.4H412.8c-12.8 0-22.4-3.2-25.6-6.4 0-3.2 0-12.8 9.6-25.6zM656 860.8a28.8 28.8 0 1 0 57.6 0 28.8 28.8 0 1 0-57.6 0ZM684.8 806.4c6.4 0 9.6-3.2 12.8-6.4 3.2-3.2 3.2-9.6 3.2-16l6.4-166.4c0-19.2-9.6-28.8-25.6-28.8-25.6 0-25.6 22.4-25.6 28.8l6.4 166.4c6.4 12.8 12.8 22.4 22.4 22.4z" /></svg>